<svg width="121" height="118" viewBox="0 0 121 118" fill="none" xmlns="http://www.w3.org/2000/svg">
<g clip-path="url(#clip0_354_5666)">
<path opacity="0.54" d="M9.91003 26.11L9.78003 49.08H26.1V25.77L25.15 24.63L9.91003 26.11Z" fill="#506DF6"/>
<path d="M23.8999 9.48L9.90991 26.11H50.2599L50.2299 36.58L58.1499 27.43L66.0699 18.29L58.1499 9.14L50.2299 0L50.2099 9.48H23.8999Z" fill="#506DF6"/>
<path opacity="0.54" d="M94.6599 9.97997L71.6899 9.84998V26.16H94.9899L96.1299 25.21L94.6599 9.97997Z" fill="#506DF6"/>
<path d="M111.29 23.96L94.6599 9.97998V50.32L84.1899 50.29L93.3299 58.21L102.48 66.14L111.62 58.21L120.76 50.29L111.29 50.27V23.96Z" fill="#506DF6"/>
<path opacity="0.54" d="M110.67 91.73L110.8 68.75H94.48V92.06L95.44 93.2L110.67 91.73Z" fill="#506DF6"/>
<path d="M96.68 108.36L110.67 91.73H70.32L70.35 81.25L62.43 90.4L54.51 99.54L62.43 108.69L70.35 117.83L70.37 108.36H96.68Z" fill="#506DF6"/>
<path opacity="0.54" d="M26.1099 108.78L49.0799 108.91V92.6H25.7699L24.6299 93.55L26.1099 108.78Z" fill="#506DF6"/>
<path d="M9.48 94.8L26.11 108.78V68.44L36.58 68.47L27.43 60.55L18.29 52.62L9.14 60.55L0 68.47L9.48 68.49V94.8Z" fill="#506DF6"/>
</g>
<defs>
<clipPath id="clip0_354_5666">
<rect width="120.76" height="117.83" fill="white"/>
</clipPath>
</defs>
</svg>
