<svg width="24" height="20" viewBox="0 0 24 20" fill="none" xmlns="http://www.w3.org/2000/svg">
<path d="M21.9165 8.58332H5.11484L10.2573 2.40665C10.4978 2.11734 10.6135 1.74436 10.579 1.36976C10.5444 0.995155 10.3625 0.649613 10.0732 0.40915C9.78386 0.168687 9.41088 0.0529996 9.03628 0.0875376C8.66167 0.122076 8.31613 0.30401 8.07567 0.593317L0.992337 9.09332C0.944682 9.16093 0.902066 9.23195 0.864837 9.30582C0.864837 9.37665 0.864837 9.41915 0.765671 9.48998C0.701458 9.65242 0.667837 9.82532 0.666504 9.99998C0.667837 10.1746 0.701458 10.3476 0.765671 10.51C0.765671 10.5808 0.76567 10.6233 0.864837 10.6942C0.902066 10.768 0.944682 10.839 0.992337 10.9067L8.07567 19.4067C8.20887 19.5666 8.37567 19.6952 8.5642 19.7833C8.75274 19.8715 8.95838 19.917 9.1665 19.9167C9.49751 19.9173 9.8183 19.802 10.0732 19.5908C10.2166 19.4719 10.3352 19.3258 10.4221 19.161C10.509 18.9962 10.5626 18.8158 10.5797 18.6303C10.5968 18.4447 10.5771 18.2576 10.5218 18.0797C10.4665 17.9017 10.3766 17.7365 10.2573 17.5933L5.11484 11.4167H21.9165C22.2922 11.4167 22.6526 11.2674 22.9182 11.0017C23.1839 10.736 23.3332 10.3757 23.3332 9.99998C23.3332 9.62426 23.1839 9.26393 22.9182 8.99825C22.6526 8.73257 22.2922 8.58332 21.9165 8.58332Z" fill="#506DF6"/>
</svg>
