<svg width="34" height="34" viewBox="0 0 34 34" fill="none" xmlns="http://www.w3.org/2000/svg">
<path d="M26.9165 15.5833H10.1148L15.2573 9.40665C15.4978 9.11734 15.6135 8.74436 15.579 8.36976C15.5444 7.99515 15.3625 7.64961 15.0732 7.40915C14.7839 7.16869 14.4109 7.053 14.0363 7.08754C13.6617 7.12208 13.3161 7.30401 13.0757 7.59332L5.99234 16.0933C5.94468 16.1609 5.90207 16.232 5.86484 16.3058C5.86484 16.3767 5.86484 16.4192 5.76567 16.49C5.70146 16.6524 5.66784 16.8253 5.6665 17C5.66784 17.1746 5.70146 17.3476 5.76567 17.51C5.76567 17.5808 5.76567 17.6233 5.86484 17.6942C5.90207 17.768 5.94468 17.839 5.99234 17.9067L13.0757 26.4067C13.2089 26.5666 13.3757 26.6952 13.5642 26.7833C13.7527 26.8715 13.9584 26.917 14.1665 26.9167C14.4975 26.9173 14.8183 26.802 15.0732 26.5908C15.2166 26.4719 15.3352 26.3258 15.4221 26.161C15.509 25.9962 15.5626 25.8158 15.5797 25.6303C15.5968 25.4447 15.5771 25.2576 15.5218 25.0797C15.4665 24.9017 15.3766 24.7365 15.2573 24.5933L10.1148 18.4167H26.9165C27.2922 18.4167 27.6526 18.2674 27.9182 18.0017C28.1839 17.736 28.3332 17.3757 28.3332 17C28.3332 16.6243 28.1839 16.2639 27.9182 15.9983C27.6526 15.7326 27.2922 15.5833 26.9165 15.5833Z" fill="#506DF6"/>
</svg>
