<svg width="55" height="55" viewBox="0 0 55 55" fill="none" xmlns="http://www.w3.org/2000/svg">
<rect width="55" height="55" rx="3" fill="#506DF6"/>
<path d="M23.9688 35H30.0312C31.8788 34.9979 33.6501 34.263 34.9566 32.9566C36.263 31.6501 36.9979 29.8788 37 28.0313V27H38.5C39.6935 27 40.8381 26.5259 41.682 25.682C42.5259 24.8381 43 23.6935 43 22.5C43 21.3065 42.5259 20.1619 41.682 19.318C40.8381 18.4741 39.6935 18 38.5 18H17V28.0313C17.0021 29.8788 17.737 31.6501 19.0434 32.9566C20.3499 34.263 22.1212 34.9979 23.9688 35ZM37 20H38.5C39.163 20 39.7989 20.2634 40.2678 20.7322C40.7366 21.2011 41 21.837 41 22.5C41 23.163 40.7366 23.7989 40.2678 24.2678C39.7989 24.7366 39.163 25 38.5 25H37V20ZM19 20H35V28.0313C34.9985 29.3486 34.4746 30.6116 33.5431 31.5431C32.6116 32.4746 31.3486 32.9985 30.0312 33H23.9688C22.6514 32.9985 21.3884 32.4746 20.4569 31.5431C19.5254 30.6116 19.0015 29.3486 19 28.0313V20Z" fill="white"/>
<path d="M43 37.5H13V39.5H43V37.5Z" fill="white"/>
</svg>
