<svg width="29" height="20" viewBox="0 0 29 20" fill="none" xmlns="http://www.w3.org/2000/svg">
<path d="M27.7709 7.19379L22.3169 6.35352L18.9932 0.923875C18.8188 0.639677 18.5739 0.40532 18.2823 0.243477C17.9908 0.0816348 17.6624 -0.00221371 17.3289 4.4433e-05L3.39934 0.11103C2.99743 0.114424 2.60655 0.242927 2.28103 0.478682C1.9555 0.714437 1.7115 1.04574 1.58292 1.42654L0 6.12037V16.9123H3.32328C3.58163 17.7521 4.1024 18.4869 4.80914 19.0089C5.51589 19.5309 6.37137 19.8126 7.25 19.8126C8.12862 19.8126 8.9841 19.5309 9.69085 19.0089C10.3976 18.4869 10.9184 17.7521 11.1767 16.9123H17.3399C17.5983 17.7521 18.1191 18.4869 18.8258 19.0089C19.5325 19.5309 20.388 19.8126 21.2667 19.8126C22.1453 19.8126 23.0008 19.5309 23.7075 19.0089C24.4143 18.4869 24.935 17.7521 25.1934 16.9123H29V8.62688C29.0016 8.28016 28.8782 7.94447 28.6525 7.68129C28.4268 7.41811 28.1138 7.24504 27.7709 7.19379ZM12.5667 1.97126L17.3443 1.9332L20.0087 6.28603L12.5667 6.28344V1.97126ZM3.41481 2.04424L10.6333 1.98672V6.28277L1.98656 6.27969L3.41481 2.04424ZM7.25 17.879C6.81982 17.879 6.39931 17.7514 6.04163 17.5124C5.68396 17.2734 5.40518 16.9337 5.24056 16.5363C5.07594 16.1389 5.03287 15.7015 5.11679 15.2796C5.20071 14.8577 5.40786 14.4702 5.71204 14.166C6.01622 13.8618 6.40377 13.6547 6.82568 13.5708C7.24758 13.4868 7.6849 13.5299 8.08233 13.6945C8.47976 13.8591 8.81945 14.1379 9.05844 14.4956C9.29743 14.8533 9.425 15.2738 9.425 15.704C9.42436 16.2806 9.195 16.8335 8.78725 17.2412C8.37949 17.649 7.82665 17.8783 7.25 17.879ZM21.2667 17.879C20.8365 17.879 20.416 17.7514 20.0583 17.5124C19.7006 17.2734 19.4218 16.9337 19.2572 16.5363C19.0926 16.1389 19.0495 15.7015 19.1334 15.2796C19.2174 14.8577 19.4245 14.4702 19.7287 14.166C20.0329 13.8618 20.4204 13.6547 20.8423 13.5708C21.2642 13.4868 21.7016 13.5299 22.099 13.6945C22.4964 13.8591 22.8361 14.1379 23.0751 14.4956C23.3141 14.8533 23.4417 15.2738 23.4417 15.704C23.441 16.2806 23.2117 16.8335 22.8039 17.2412C22.3962 17.649 21.8433 17.8783 21.2667 17.879ZM27.0667 14.979H25.3096C25.1398 14.0303 24.6417 13.1715 23.9026 12.553C23.1635 11.9345 22.2304 11.5955 21.2667 11.5955C20.3029 11.5955 19.3698 11.9345 18.6307 12.553C17.8916 13.1715 17.3935 14.0303 17.2237 14.979H11.293C11.1231 14.0303 10.6251 13.1715 9.88595 12.553C9.14685 11.9345 8.21377 11.5955 7.25 11.5955C6.28622 11.5955 5.35314 11.9345 4.61404 12.553C3.87494 13.1715 3.37688 14.0303 3.20704 14.979H1.93333V8.21387L21.9026 8.24583L27.0667 9.04145V14.979Z" fill="white"/>
</svg>
