<svg width="55" height="55" viewBox="0 0 55 55" fill="none" xmlns="http://www.w3.org/2000/svg">
<rect width="55" height="55" rx="3" fill="#506DF6"/>
<path d="M33.9406 10H20.7261L18.9714 19.3582C17.0602 21.4443 16 24.1708 16 27C16 29.8292 17.0602 32.5557 18.9714 34.6418L20.7261 44H33.9406L35.6953 34.6418C37.6066 32.5557 38.6668 29.8292 38.6668 27C38.6668 24.1708 37.6066 21.4443 35.6953 19.3582L33.9406 10ZM22.6073 12.2667H32.0595L32.9803 17.1762C31.2628 16.1872 29.3156 15.6667 27.3337 15.6667C25.3517 15.6667 23.4046 16.1872 21.687 17.1762L22.6073 12.2667ZM32.0595 41.7333H22.6073L21.6865 36.8238C23.404 37.8128 25.3512 38.3333 27.3331 38.3333C29.315 38.3333 31.2622 37.8128 32.9797 36.8238L32.0595 41.7333ZM27.3334 36.0667C25.5402 36.0667 23.7872 35.5349 22.2962 34.5387C20.8052 33.5424 19.6431 32.1264 18.9569 30.4697C18.2706 28.8129 18.0911 26.9899 18.4409 25.2312C18.7908 23.4724 19.6543 21.8569 20.9223 20.5889C22.1903 19.3209 23.8058 18.4574 25.5646 18.1075C27.3233 17.7577 29.1463 17.9373 30.803 18.6235C32.4598 19.3097 33.8758 20.4718 34.872 21.9628C35.8683 23.4538 36.4 25.2068 36.4 27C36.3973 29.4038 35.4412 31.7084 33.7415 33.4081C32.0417 35.1078 29.7372 36.0639 27.3334 36.0667Z" fill="white"/>
</svg>
