<svg width="55" height="55" viewBox="0 0 55 55" fill="none" xmlns="http://www.w3.org/2000/svg">
<rect width="55" height="55" rx="3" fill="#506DF6"/>
<path d="M42.7709 27.1938L37.3169 26.3535L33.9932 20.9239C33.8188 20.6397 33.5739 20.4053 33.2823 20.2435C32.9908 20.0816 32.6624 19.9978 32.3289 20L18.3993 20.111C17.9974 20.1144 17.6066 20.2429 17.281 20.4787C16.9555 20.7144 16.7115 21.0457 16.5829 21.4265L15 26.1204V36.9123H18.3233C18.5816 37.7521 19.1024 38.4869 19.8091 39.0089C20.5159 39.5309 21.3714 39.8126 22.25 39.8126C23.1286 39.8126 23.9841 39.5309 24.6908 39.0089C25.3976 38.4869 25.9184 37.7521 26.1767 36.9123H32.3399C32.5983 37.7521 33.1191 38.4869 33.8258 39.0089C34.5325 39.5309 35.388 39.8126 36.2667 39.8126C37.1453 39.8126 38.0008 39.5309 38.7075 39.0089C39.4143 38.4869 39.935 37.7521 40.1934 36.9123H44V28.6269C44.0016 28.2802 43.8782 27.9445 43.6525 27.6813C43.4268 27.4181 43.1138 27.245 42.7709 27.1938ZM27.5667 21.9713L32.3443 21.9332L35.0087 26.286L27.5667 26.2834V21.9713ZM18.4148 22.0442L25.6333 21.9867V26.2828L16.9866 26.2797L18.4148 22.0442ZM22.25 37.879C21.8198 37.879 21.3993 37.7514 21.0416 37.5124C20.684 37.2734 20.4052 36.9337 20.2406 36.5363C20.0759 36.1389 20.0329 35.7015 20.1168 35.2796C20.2007 34.8577 20.4079 34.4702 20.712 34.166C21.0162 33.8618 21.4038 33.6547 21.8257 33.5708C22.2476 33.4868 22.6849 33.5299 23.0823 33.6945C23.4798 33.8591 23.8194 34.1379 24.0584 34.4956C24.2974 34.8533 24.425 35.2738 24.425 35.704C24.4244 36.2806 24.195 36.8335 23.7872 37.2412C23.3795 37.649 22.8266 37.8783 22.25 37.879ZM36.2667 37.879C35.8365 37.879 35.416 37.7514 35.0583 37.5124C34.7006 37.2734 34.4218 36.9337 34.2572 36.5363C34.0926 36.1389 34.0495 35.7015 34.1334 35.2796C34.2174 34.8577 34.4245 34.4702 34.7287 34.166C35.0329 33.8618 35.4204 33.6547 35.8423 33.5708C36.2642 33.4868 36.7016 33.5299 37.099 33.6945C37.4964 33.8591 37.8361 34.1379 38.0751 34.4956C38.3141 34.8533 38.4417 35.2738 38.4417 35.704C38.441 36.2806 38.2117 36.8335 37.8039 37.2412C37.3962 37.649 36.8433 37.8783 36.2667 37.879ZM42.0667 34.979H40.3096C40.1398 34.0303 39.6417 33.1715 38.9026 32.553C38.1635 31.9345 37.2304 31.5955 36.2667 31.5955C35.3029 31.5955 34.3698 31.9345 33.6307 32.553C32.8916 33.1715 32.3935 34.0303 32.2237 34.979H26.293C26.1231 34.0303 25.6251 33.1715 24.886 32.553C24.1468 31.9345 23.2138 31.5955 22.25 31.5955C21.2862 31.5955 20.3531 31.9345 19.614 32.553C18.8749 33.1715 18.3769 34.0303 18.207 34.979H16.9333V28.2139L36.9026 28.2458L42.0667 29.0415V34.979Z" fill="white"/>
</svg>
