<svg width="23" height="34" viewBox="0 0 23 34" fill="none" xmlns="http://www.w3.org/2000/svg">
<path d="M17.9406 0H4.72612L2.97144 9.35822C1.06018 11.4443 0 14.1708 0 17C0 19.8292 1.06018 22.5557 2.97144 24.6418L4.72612 34H17.9406L19.6953 24.6418C21.6066 22.5557 22.6668 19.8292 22.6668 17C22.6668 14.1708 21.6066 11.4443 19.6953 9.35822L17.9406 0ZM6.60731 2.26667H16.0595L16.9803 7.1762C15.2628 6.18721 13.3156 5.66666 11.3337 5.66666C9.35174 5.66666 7.40458 6.18721 5.68705 7.1762L6.60731 2.26667ZM16.0595 31.7333H6.60731L5.68648 26.8238C7.40401 27.8128 9.35118 28.3333 11.3331 28.3333C13.315 28.3333 15.2622 27.8128 16.9797 26.8238L16.0595 31.7333ZM11.3334 26.0667C9.54017 26.0667 7.78722 25.5349 6.29621 24.5387C4.80521 23.5424 3.64311 22.1264 2.95688 20.4697C2.27064 18.8129 2.09109 16.9899 2.44093 15.2312C2.79077 13.4724 3.65428 11.8569 4.92228 10.5889C6.19028 9.3209 7.8058 8.45739 9.56456 8.10755C11.3233 7.75771 13.1463 7.93726 14.803 8.62349C16.4598 9.30973 17.8758 10.4718 18.872 11.9628C19.8683 13.4538 20.4 15.2068 20.4 17C20.3973 19.4038 19.4412 21.7084 17.7415 23.4081C16.0417 25.1078 13.7372 26.0639 11.3334 26.0667Z" fill="white"/>
</svg>
