<svg width="34" height="27" viewBox="0 0 34 27" fill="none" xmlns="http://www.w3.org/2000/svg">
<path d="M29.7551 9.50682V3.30612C29.7541 2.42959 29.4055 1.58925 28.7857 0.969448C28.1659 0.349647 27.3255 0.00100264 26.449 0H6.61225C5.73571 0.00100264 4.89537 0.349647 4.27557 0.969448C3.65577 1.58925 3.30713 2.42959 3.30612 3.30612V9.50682C2.36047 9.75239 1.52296 10.3046 0.924706 11.0771C0.326454 11.8495 0.00124592 12.7985 0 13.7755V21.4898C0.000656295 22.0742 0.233082 22.6344 0.646285 23.0476C1.05949 23.4608 1.61972 23.6932 2.20408 23.6939H3.30612V27H5.5102V23.6939H27.551V27H29.7551V23.6939H30.8571C31.4415 23.6932 32.0017 23.4608 32.4149 23.0476C32.8281 22.6344 33.0606 22.0742 33.0612 21.4898V13.7755C33.06 12.7985 32.7348 11.8495 32.1365 11.0771C31.5383 10.3046 30.7008 9.75239 29.7551 9.50682ZM6.61225 21.4898H2.20408V13.7755C2.20408 13.191 2.4363 12.6303 2.84964 12.217C3.26299 11.8036 3.8236 11.5714 4.40816 11.5714C4.99272 11.5714 5.55334 11.8036 5.96668 12.217C6.38003 12.6303 6.61225 13.191 6.61225 13.7755V21.4898ZM24.2449 21.4898H8.81633V14.8776H24.2449V21.4898ZM24.3844 12.6735H8.67685C8.47842 11.9117 8.08035 11.2166 7.52371 10.66C6.96706 10.1033 6.272 9.70525 5.5102 9.50682V3.30612C5.51055 3.01395 5.62677 2.73384 5.83337 2.52724C6.03997 2.32065 6.32007 2.20443 6.61225 2.20408H26.449C26.7412 2.20443 27.0213 2.32065 27.2279 2.52724C27.4345 2.73384 27.5507 3.01395 27.551 3.30612V9.50682C26.7892 9.70525 26.0942 10.1033 25.5375 10.66C24.9809 11.2166 24.5828 11.9117 24.3844 12.6735ZM30.8571 21.4898H26.449V13.7755C26.449 13.191 26.6812 12.6303 27.0945 12.217C27.5079 11.8036 28.0685 11.5714 28.6531 11.5714C29.2376 11.5714 29.7982 11.8036 30.2116 12.217C30.6249 12.6303 30.8571 13.191 30.8571 13.7755L30.8585 21.4898H30.8571Z" fill="white"/>
</svg>
