<svg width="26" height="17" viewBox="0 0 26 17" fill="none" xmlns="http://www.w3.org/2000/svg">
<path d="M6.96875 17H13.0312C14.8788 16.9979 16.6501 16.263 17.9566 14.9566C19.263 13.6501 19.9979 11.8788 20 10.0313V9H21.5C22.6935 9 23.8381 8.5259 24.682 7.68198C25.5259 6.83807 26 5.69347 26 4.5C26 3.30653 25.5259 2.16193 24.682 1.31802C23.8381 0.474106 22.6935 1.77842e-08 21.5 0H0V10.0313C0.00210083 11.8788 0.736981 13.6501 2.04342 14.9566C3.34986 16.263 5.12117 16.9979 6.96875 17ZM20 2H21.5C22.163 2 22.7989 2.26339 23.2678 2.73223C23.7366 3.20107 24 3.83696 24 4.5C24 5.16304 23.7366 5.79893 23.2678 6.26777C22.7989 6.73661 22.163 7 21.5 7H20V2ZM2 2H18V10.0313C17.9985 11.3486 17.4746 12.6116 16.5431 13.5431C15.6116 14.4746 14.3486 14.9985 13.0312 15H6.96875C5.65141 14.9985 4.38844 14.4746 3.45694 13.5431C2.52544 12.6116 2.00147 11.3486 2 10.0313V2Z" fill="white"/>
</svg>
