<svg width="14" height="16" viewBox="0 0 14 16" fill="none" xmlns="http://www.w3.org/2000/svg">
<path d="M12.606 12.6443C13.4962 11.7623 14.0002 10.5867 14.0002 9.3668C14.0002 8.07032 13.4543 6.85783 12.4629 5.95246C11.4981 5.0716 10.221 4.58643 8.86673 4.58643C7.51247 4.58643 6.23537 5.0716 5.27069 5.95252C4.27934 6.85783 3.7334 8.07032 3.7334 9.3668C3.7334 10.6633 4.27934 11.8758 5.27069 12.7811C6.23537 13.6621 7.51247 14.1472 8.86673 14.1472C9.04719 14.1472 9.22875 14.1384 9.40879 14.1208L9.71639 14.4172C10.7761 15.438 12.1312 15.9999 13.5334 16H14.0001V14.8957L13.8634 14.7438C13.3242 14.1426 12.897 13.4292 12.606 12.6443ZM10.3277 13.633L9.71046 13.0383L9.50466 13.0663C9.29301 13.0951 9.07997 13.1095 8.86673 13.1095C6.5509 13.1095 4.66673 11.4306 4.66673 9.3668C4.66673 7.30305 6.5509 5.62402 8.86673 5.62402C11.1826 5.62402 13.0667 7.30302 13.0667 9.3668C13.0667 10.395 12.6053 11.3549 11.7675 12.0697L11.4987 12.299L11.6227 12.6892C11.8769 13.4862 12.2504 14.2297 12.7276 14.8882C11.839 14.7233 11.0085 14.2889 10.3277 13.633Z" fill="#506DF6"/>
<path d="M1.28873 10.2114C1.72557 9.59664 2.06855 8.90627 2.30396 8.16786L2.42705 7.77957L2.15851 7.55046C1.36844 6.87647 0.933333 5.97188 0.933333 5.00332C0.933333 3.05704 2.71276 1.47363 4.9 1.47363C6.50907 1.47363 7.89737 2.33062 8.51891 3.55856C8.63433 3.55233 8.75023 3.54883 8.86667 3.54883C9.10052 3.54883 9.33224 3.56144 9.56183 3.58667C9.32164 2.89488 8.9045 2.26338 8.33099 1.73971C7.41043 0.899031 6.19208 0.436035 4.9 0.436035C3.60792 0.436035 2.38957 0.899031 1.46895 1.73971C0.521675 2.60478 0 3.76381 0 5.00332C0 6.16413 0.476933 7.28263 1.31979 8.12399C1.04473 8.85987 0.64282 9.52882 0.136704 10.0931L0 10.2451V11.3308H0.466667C1.32962 11.3307 2.18071 11.1073 2.95257 10.6783C2.86793 10.3216 2.81834 9.95585 2.80467 9.58733C2.33618 9.89257 1.82305 10.1038 1.28873 10.2114Z" fill="#506DF6"/>
</svg>
