<svg width="23" height="28" viewBox="0 0 23 28" fill="none" xmlns="http://www.w3.org/2000/svg">
<path d="M1.86674 26.6C1.86394 26.9679 2.00717 27.3219 2.26502 27.5843C2.52287 27.8468 2.87428 27.9963 3.24218 28H19.158C19.5259 27.9963 19.8773 27.8468 20.1351 27.5843C20.393 27.3219 20.5362 26.9679 20.5334 26.6V7.93332H1.86674V26.6ZM3.73341 9.79999H18.6667V26.1333H3.73341V9.79999Z" fill="#506DF6"/>
<path d="M7.93332 11.6667H6.06665V23.3333H7.93332V11.6667Z" fill="#506DF6"/>
<path d="M12.1333 11.6667H10.2666V23.3333H12.1333V11.6667Z" fill="#506DF6"/>
<path d="M16.3332 11.6667H14.4666V23.3333H16.3332V11.6667Z" fill="#506DF6"/>
<path d="M15.4 4.2V1.4C15.4 0.61495 14.8465 0 14.14 0H8.26C7.55347 0 7 0.61495 7 1.4V4.2H0V6.06667H22.4V4.2H15.4ZM8.86667 1.86667H13.5333V4.2H8.86667V1.86667Z" fill="#506DF6"/>
</svg>
