  <svg width="40" height="40" viewBox="0 0 40 40" fill="none" xmlns="http://www.w3.org/2000/svg">
          <path
            d="M20.8333 12.5L9.59486 23.7385C9.38233 23.951 9.27606 24.0573 9.20619 24.1878C9.13633 24.3184 9.10685 24.4657 9.04791 24.7605L7.64709 31.7646C7.58057 32.0972 7.5473 32.2635 7.64191 32.3581C7.73652 32.4527 7.90283 32.4194 8.23544 32.3529L15.2395 30.9521L15.2396 30.9521C15.5343 30.8931 15.6816 30.8637 15.8122 30.7938C15.9427 30.7239 16.049 30.6177 16.2615 30.4052L16.2615 30.4051L27.5 19.1667L20.8333 12.5Z"
            fill="#506DF6" fill-opacity="0.66" />
          <path
            d="M7.74255 32.2574L8.16682 31.8332L7.74255 32.2575C7.98384 32.4987 8.28307 32.5002 8.4482 32.4841C8.59647 32.4696 8.77075 32.4259 8.92483 32.3873C8.93463 32.3848 8.94435 32.3824 8.95397 32.38L8.80845 31.7979L8.95397 32.38L14.3773 31.0241C14.3935 31.0201 14.4097 31.0161 14.4258 31.0121C14.6445 30.9577 14.8548 30.9054 15.0463 30.797C15.2378 30.6887 15.3908 30.5352 15.5499 30.3756C15.5617 30.3638 15.5734 30.352 15.5852 30.3402L29.0101 16.9154L29.0369 16.8886C29.3472 16.5783 29.6215 16.3041 29.8128 16.0533C30.0202 15.7815 30.1858 15.468 30.1858 15.0769C30.1858 14.6859 30.0202 14.3724 29.8128 14.1005C29.6215 13.8498 29.3472 13.5756 29.0369 13.2653L29.0101 13.2384L26.7616 10.9899L26.7347 10.9631C26.4244 10.6528 26.1502 10.3785 25.8995 10.1872C25.6276 9.97981 25.3141 9.81421 24.9231 9.81421C24.532 9.81421 24.2185 9.97981 23.9467 10.1872C23.6959 10.3785 23.4217 10.6528 23.1114 10.9631L23.0846 10.99L9.65976 24.4148C9.64796 24.4266 9.63617 24.4383 9.62442 24.4501C9.46479 24.6092 9.31135 24.7623 9.20295 24.9537C9.09456 25.1452 9.04229 25.3555 8.98793 25.5742C8.98393 25.5903 8.97991 25.6065 8.97587 25.6227L7.62003 31.046C7.61762 31.0557 7.61518 31.0654 7.61272 31.0752C7.57411 31.2293 7.53044 31.4035 7.51593 31.5518C7.49978 31.7169 7.50127 32.0162 7.74255 32.2574Z"
            stroke="#506DF6" stroke-width="1.2" />
          <path d="M20.8334 12.5L27.5 19.1667" stroke="#506DF6" stroke-width="1.2" />
        </svg>
