<?xml version="1.0" encoding="UTF-8"?>
<svg id="Layer_2" data-name="Layer 2" xmlns="http://www.w3.org/2000/svg" viewBox="0 0 608.2 593.44">
  <defs>
    <style>
      .cls-1 {
        fill: #506df6;
      }

      .cls-2 {
        opacity: .54;
      }
    </style>
  </defs>
  <g id="Logo_Isolated_-_favicon" data-name="Logo Isolated - favicon">
    <g>
      <g>
        <g class="cls-2">
          <polygon class="cls-1" points="49.93 131.47 49.27 247.17 131.46 247.17 131.46 129.8 126.64 124.05 49.93 131.47"/>
        </g>
        <polygon class="cls-1" points="120.37 47.73 49.93 131.47 253.13 131.47 252.98 184.22 292.87 138.16 332.76 92.11 292.87 46.05 252.98 0 252.87 47.72 120.37 47.73"/>
      </g>
      <g>
        <g class="cls-2">
          <polygon class="cls-1" points="476.73 50.25 361.03 49.59 361.03 131.77 478.4 131.77 484.15 126.96 476.73 50.25"/>
        </g>
        <polygon class="cls-1" points="560.48 120.69 476.73 50.25 476.73 253.44 423.99 253.3 470.04 293.19 516.1 333.08 562.15 293.19 608.2 253.3 560.48 253.19 560.48 120.69"/>
      </g>
      <g>
        <g class="cls-2">
          <polygon class="cls-1" points="557.37 461.96 558.03 346.26 475.84 346.26 475.84 463.64 480.66 469.39 557.37 461.96"/>
        </g>
        <polygon class="cls-1" points="486.93 545.71 557.37 461.96 354.17 461.96 354.32 409.22 314.43 455.27 274.53 501.33 314.43 547.38 354.32 593.44 354.42 545.71 486.93 545.71"/>
      </g>
      <g>
        <g class="cls-2">
          <polygon class="cls-1" points="131.47 547.87 247.17 548.53 247.17 466.34 129.8 466.34 124.05 471.16 131.47 547.87"/>
        </g>
        <polygon class="cls-1" points="47.73 477.43 131.47 547.87 131.47 344.67 184.22 344.82 138.16 304.93 92.11 265.03 46.05 304.93 0 344.82 47.72 344.92 47.73 477.43"/>
      </g>
    </g>
  </g>
</svg>