<svg width="20" height="20" viewBox="0 0 20 20" fill="none" xmlns="http://www.w3.org/2000/svg">
<path d="M19.9161 7.20464C19.8205 6.90797 19.6446 6.64354 19.408 6.44063C19.1714 6.23772 18.8833 6.10425 18.5755 6.05497L13.7459 5.2701L11.5071 0.919517C11.3645 0.642552 11.1484 0.410221 10.8824 0.248015C10.6164 0.0858103 10.3109 0 9.9994 0C9.68788 0 9.38237 0.0858103 9.11641 0.248015C8.85044 0.410221 8.6343 0.642552 8.49169 0.919517L6.25286 5.2701L1.4234 6.05497C1.11593 6.10502 0.828184 6.23879 0.591735 6.44161C0.355287 6.64442 0.179272 6.90845 0.0830053 7.20472C-0.0132619 7.50099 -0.026062 7.81806 0.0460095 8.12112C0.118081 8.42419 0.272239 8.70155 0.491569 8.92276L3.9374 12.3964L3.19157 17.2321C3.14371 17.54 3.18172 17.8553 3.30142 18.1431C3.42112 18.4309 3.61787 18.6801 3.87003 18.8633C4.1222 19.0465 4.42 19.1566 4.73069 19.1815C5.04139 19.2064 5.35293 19.1452 5.63107 19.0045L9.9994 16.8007L14.3679 19.0045C14.646 19.1449 14.9575 19.2059 15.2681 19.1809C15.5786 19.1558 15.8763 19.0457 16.1284 18.8625C16.3804 18.6794 16.5772 18.4303 16.697 18.1427C16.8167 17.8551 16.8549 17.54 16.8074 17.2321L16.0615 12.3964L19.5074 8.92276C19.7274 8.70198 19.882 8.42461 19.9541 8.12137C20.0263 7.81813 20.0131 7.50085 19.9161 7.20464ZM18.5606 7.98381L14.6411 11.935L15.4896 17.4354C15.5001 17.5013 15.4922 17.5688 15.4667 17.6304C15.4412 17.6921 15.3991 17.7455 15.3451 17.7847C15.2912 17.8239 15.2274 17.8474 15.1609 17.8526C15.0944 17.8578 15.0278 17.8445 14.9684 17.8141L9.9994 15.3073L5.0304 17.8142C4.971 17.8445 4.90436 17.8579 4.83785 17.8527C4.77135 17.8475 4.70758 17.824 4.65361 17.7848C4.59964 17.7456 4.55758 17.6922 4.53209 17.6305C4.5066 17.5689 4.49867 17.5014 4.50919 17.4355L5.35773 11.935L1.43819 7.98376C1.39139 7.93648 1.3585 7.87722 1.34313 7.81248C1.32776 7.74774 1.33051 7.68002 1.35107 7.61674C1.37163 7.55346 1.40921 7.49706 1.45969 7.45372C1.51018 7.41037 1.57161 7.38176 1.63728 7.37102L7.13065 6.47827L9.67727 1.52964C9.70773 1.47045 9.7539 1.42079 9.81073 1.38612C9.86755 1.35145 9.93283 1.3331 9.9994 1.3331C10.066 1.3331 10.1312 1.35145 10.1881 1.38612C10.2449 1.42079 10.2911 1.47045 10.3215 1.52964L12.8681 6.47827L18.3615 7.37102C18.4272 7.38176 18.4886 7.41037 18.5391 7.45372C18.5896 7.49706 18.6272 7.55346 18.6477 7.61674C18.6683 7.68002 18.671 7.74774 18.6557 7.81248C18.6403 7.87722 18.6075 7.93652 18.5606 7.98381Z" fill="#506DF6"/>
<path d="M18.5606 7.98381L14.6411 11.935L15.4896 17.4354C15.5001 17.5013 15.4922 17.5688 15.4667 17.6304C15.4412 17.6921 15.3991 17.7455 15.3451 17.7847C15.2912 17.8239 15.2274 17.8474 15.1609 17.8526C15.0944 17.8578 15.0278 17.8445 14.9684 17.8141L9.9994 15.3073L5.0304 17.8142C4.971 17.8445 4.90436 17.8579 4.83785 17.8527C4.77135 17.8475 4.70758 17.824 4.65361 17.7848C4.59964 17.7456 4.55758 17.6922 4.53209 17.6305C4.5066 17.5689 4.49867 17.5014 4.50919 17.4355L5.35773 11.935L1.43819 7.98376C1.39139 7.93648 1.3585 7.87722 1.34313 7.81248C1.32776 7.74774 1.33051 7.68002 1.35107 7.61674C1.37163 7.55346 1.40921 7.49706 1.45969 7.45372C1.51018 7.41037 1.57161 7.38176 1.63728 7.37102L7.13065 6.47827L9.67727 1.52964C9.70773 1.47045 9.7539 1.42079 9.81073 1.38612C9.86755 1.35145 9.93283 1.3331 9.9994 1.3331C10.066 1.3331 10.1312 1.35145 10.1881 1.38612C10.2449 1.42079 10.2911 1.47045 10.3215 1.52964L12.8681 6.47827L18.3615 7.37102C18.4272 7.38176 18.4886 7.41037 18.5391 7.45372C18.5896 7.49706 18.6272 7.55346 18.6477 7.61674C18.6683 7.68002 18.671 7.74774 18.6557 7.81248C18.6403 7.87722 18.6075 7.93652 18.5606 7.98381Z" fill="#506DF6"/>
</svg>
