<svg width="55" height="55" viewBox="0 0 55 55" fill="none" xmlns="http://www.w3.org/2000/svg">
<rect width="55" height="55" rx="3" fill="#506DF6"/>
<path d="M41.7551 24.5068V18.3061C41.7541 17.4296 41.4055 16.5892 40.7857 15.9694C40.1659 15.3496 39.3255 15.001 38.449 15H18.6122C17.7357 15.001 16.8954 15.3496 16.2756 15.9694C15.6558 16.5892 15.3071 17.4296 15.3061 18.3061V24.5068C14.3605 24.7524 13.523 25.3046 12.9247 26.0771C12.3265 26.8495 12.0012 27.7985 12 28.7755V36.4898C12.0007 37.0742 12.2331 37.6344 12.6463 38.0476C13.0595 38.4608 13.6197 38.6932 14.2041 38.6939H15.3061V42H17.5102V38.6939H39.551V42H41.7551V38.6939H42.8571C43.4415 38.6932 44.0017 38.4608 44.4149 38.0476C44.8281 37.6344 45.0606 37.0742 45.0612 36.4898V28.7755C45.06 27.7985 44.7348 26.8495 44.1365 26.0771C43.5383 25.3046 42.7008 24.7524 41.7551 24.5068ZM18.6122 36.4898H14.2041V28.7755C14.2041 28.191 14.4363 27.6303 14.8496 27.217C15.263 26.8036 15.8236 26.5714 16.4082 26.5714C16.9927 26.5714 17.5533 26.8036 17.9667 27.217C18.38 27.6303 18.6122 28.191 18.6122 28.7755V36.4898ZM36.2449 36.4898H20.8163V29.8776H36.2449V36.4898ZM36.3844 27.6735H20.6769C20.4784 26.9117 20.0804 26.2166 19.5237 25.66C18.9671 25.1033 18.272 24.7053 17.5102 24.5068V18.3061C17.5106 18.0139 17.6268 17.7338 17.8334 17.5272C18.04 17.3206 18.3201 17.2044 18.6122 17.2041H38.449C38.7412 17.2044 39.0213 17.3206 39.2279 17.5272C39.4345 17.7338 39.5507 18.0139 39.551 18.3061V24.5068C38.7892 24.7053 38.0942 25.1033 37.5375 25.66C36.9809 26.2166 36.5828 26.9117 36.3844 27.6735ZM42.8571 36.4898H38.449V28.7755C38.449 28.191 38.6812 27.6303 39.0945 27.217C39.5079 26.8036 40.0685 26.5714 40.6531 26.5714C41.2376 26.5714 41.7982 26.8036 42.2116 27.217C42.6249 27.6303 42.8571 28.191 42.8571 28.7755L42.8585 36.4898H42.8571Z" fill="white"/>
</svg>
