<svg width="20" height="20" viewBox="0 0 20 20" fill="none" xmlns="http://www.w3.org/2000/svg">
<path d="M19.9161 7.39156C19.8205 7.09489 19.6446 6.83046 19.408 6.62755C19.1714 6.42464 18.8833 6.29117 18.5755 6.24189L13.7459 5.45702L11.5071 1.10644C11.3645 0.829472 11.1484 0.597141 10.8824 0.434936C10.6164 0.27273 10.3109 0.18692 9.9994 0.18692C9.68788 0.18692 9.38237 0.27273 9.11641 0.434936C8.85044 0.597141 8.6343 0.829472 8.49169 1.10644L6.25286 5.45702L1.4234 6.24189C1.11593 6.29194 0.828184 6.42571 0.591735 6.62853C0.355287 6.83135 0.179272 7.09537 0.0830053 7.39164C-0.0132619 7.68791 -0.026062 8.00498 0.0460095 8.30804C0.118081 8.61111 0.272239 8.88847 0.491569 9.10968L3.9374 12.5833L3.19157 17.419C3.14371 17.727 3.18172 18.0422 3.30142 18.33C3.42112 18.6178 3.61787 18.867 3.87003 19.0502C4.1222 19.2334 4.42 19.3435 4.73069 19.3684C5.04139 19.3933 5.35293 19.3321 5.63107 19.1914L9.9994 16.9876L14.3679 19.1914C14.646 19.3318 14.9575 19.3928 15.2681 19.3678C15.5786 19.3428 15.8763 19.2326 16.1284 19.0495C16.3804 18.8663 16.5772 18.6173 16.697 18.3296C16.8167 18.042 16.8549 17.7269 16.8074 17.419L16.0615 12.5833L19.5074 9.10968C19.7274 8.8889 19.882 8.61153 19.9541 8.30829C20.0263 8.00505 20.0131 7.68777 19.9161 7.39156ZM18.5606 8.17073L14.6411 12.1219L15.4896 17.6223C15.5001 17.6882 15.4922 17.7557 15.4667 17.8174C15.4412 17.879 15.3991 17.9324 15.3451 17.9716C15.2912 18.0108 15.2274 18.0343 15.1609 18.0395C15.0944 18.0447 15.0278 18.0314 14.9684 18.001L9.9994 15.4943L5.0304 18.0011C4.971 18.0315 4.90436 18.0448 4.83785 18.0396C4.77135 18.0344 4.70758 18.0109 4.65361 17.9717C4.59964 17.9325 4.55758 17.8791 4.53209 17.8175C4.5066 17.7558 4.49867 17.6883 4.50919 17.6224L5.35773 12.1219L1.43819 8.17068C1.39139 8.1234 1.3585 8.06414 1.34313 7.9994C1.32776 7.93466 1.33051 7.86694 1.35107 7.80366C1.37163 7.74038 1.40921 7.68398 1.45969 7.64064C1.51018 7.59729 1.57161 7.56868 1.63728 7.55794L7.13065 6.66519L9.67727 1.71656C9.70773 1.65737 9.7539 1.60771 9.81073 1.57304C9.86755 1.53837 9.93283 1.52002 9.9994 1.52002C10.066 1.52002 10.1312 1.53837 10.1881 1.57304C10.2449 1.60771 10.2911 1.65737 10.3215 1.71656L12.8681 6.66519L18.3615 7.55794C18.4272 7.56868 18.4886 7.59729 18.5391 7.64064C18.5896 7.68398 18.6272 7.74038 18.6477 7.80366C18.6683 7.86694 18.671 7.93466 18.6557 7.9994C18.6403 8.06414 18.6075 8.12344 18.5606 8.17073Z" fill="#A0A0A0"/>
<path d="M18.5606 8.17073L14.6411 12.1219L15.4896 17.6223C15.5001 17.6882 15.4922 17.7557 15.4667 17.8174C15.4412 17.879 15.3991 17.9324 15.3451 17.9716C15.2912 18.0108 15.2274 18.0343 15.1609 18.0395C15.0944 18.0447 15.0278 18.0314 14.9684 18.001L9.9994 15.4943L5.0304 18.0011C4.971 18.0315 4.90436 18.0448 4.83785 18.0396C4.77135 18.0344 4.70758 18.0109 4.65361 17.9717C4.59964 17.9325 4.55758 17.8791 4.53209 17.8175C4.5066 17.7558 4.49867 17.6883 4.50919 17.6224L5.35773 12.1219L1.43819 8.17068C1.39139 8.1234 1.3585 8.06414 1.34313 7.9994C1.32776 7.93466 1.33051 7.86694 1.35107 7.80366C1.37163 7.74038 1.40921 7.68398 1.45969 7.64064C1.51018 7.59729 1.57161 7.56868 1.63728 7.55794L7.13065 6.66519L9.67727 1.71656C9.70773 1.65737 9.7539 1.60771 9.81073 1.57304C9.86755 1.53837 9.93283 1.52002 9.9994 1.52002C10.066 1.52002 10.1312 1.53837 10.1881 1.57304C10.2449 1.60771 10.2911 1.65737 10.3215 1.71656L12.8681 6.66519L18.3615 7.55794C18.4272 7.56868 18.4886 7.59729 18.5391 7.64064C18.5896 7.68398 18.6272 7.74038 18.6477 7.80366C18.6683 7.86694 18.671 7.93466 18.6557 7.9994C18.6403 8.06414 18.6075 8.12344 18.5606 8.17073Z" fill="#A0A0A0"/>
</svg>
