<svg width="20" height="20" viewBox="0 0 20 20" fill="none" xmlns="http://www.w3.org/2000/svg">
<rect x="10" y="1" width="1" height="16" fill="#A0A0A0"/>
<rect x="11" y="3" width="1" height="14" fill="#A0A0A0"/>
<rect x="12" y="5" width="1" height="13" fill="#A0A0A0"/>
<rect x="13" y="6" width="1" height="12" fill="#A0A0A0"/>
<rect x="14" y="6" width="1" height="13" fill="#A0A0A0"/>
<rect x="15" y="7" width="1" height="12" fill="#A0A0A0"/>
<rect x="16" y="7" width="1" height="4" fill="#A0A0A0"/>
<rect x="17" y="7" width="1" height="3" fill="#A0A0A0"/>
<rect x="18" y="7" width="1" height="2" fill="#A0A0A0"/>
<path fill-rule="evenodd" clip-rule="evenodd" d="M9.9994 17.1746V15.6812L5.0304 18.188C4.971 18.2184 4.90436 18.2317 4.83785 18.2265C4.77135 18.2213 4.70758 18.1978 4.65361 18.1586C4.59964 18.1194 4.55758 18.066 4.53209 18.0044C4.5066 17.9427 4.49867 17.8752 4.50919 17.8094L5.35773 12.3089L1.43819 8.3576C1.39139 8.31032 1.3585 8.25106 1.34313 8.18632C1.32776 8.12158 1.33051 8.05386 1.35107 7.99058C1.37163 7.9273 1.40921 7.8709 1.45969 7.82756C1.51018 7.78421 1.57161 7.7556 1.63728 7.74486L7.13065 6.85211L9.67727 1.90348C9.70773 1.84429 9.7539 1.79463 9.81073 1.75996C9.86755 1.72529 9.93283 1.70694 9.9994 1.70694V0.37384C9.68788 0.37384 9.38237 0.459651 9.11641 0.621856C8.85044 0.784061 8.6343 1.01639 8.49169 1.29336L6.25286 5.64394L1.4234 6.42881C1.11593 6.47886 0.828184 6.61263 0.591735 6.81545C0.355287 7.01827 0.179272 7.28229 0.0830053 7.57856C-0.0132619 7.87483 -0.026062 8.1919 0.0460095 8.49496C0.118081 8.79803 0.272239 9.07539 0.491569 9.29661L3.9374 12.7703L3.19157 17.6059C3.14371 17.9139 3.18172 18.2291 3.30142 18.5169C3.42112 18.8047 3.61787 19.0539 3.87003 19.2371C4.1222 19.4203 4.42 19.5304 4.73069 19.5553C5.04139 19.5803 5.35293 19.519 5.63107 19.3783L9.9994 17.1746Z" fill="#506DF6"/>
<path fill-rule="evenodd" clip-rule="evenodd" d="M5.0304 18.188L9.9994 15.6812V1.70694C9.93283 1.70694 9.86755 1.72529 9.81073 1.75996C9.7539 1.79463 9.70773 1.84429 9.67727 1.90348L7.13065 6.85211L1.63728 7.74486C1.57161 7.7556 1.51018 7.78421 1.45969 7.82756C1.40921 7.8709 1.37163 7.9273 1.35107 7.99058C1.33051 8.05386 1.32776 8.12158 1.34313 8.18632C1.3585 8.25106 1.39139 8.31032 1.43819 8.3576L5.35773 12.3089L4.50919 17.8094C4.49867 17.8752 4.5066 17.9427 4.53209 18.0044C4.55758 18.066 4.59964 18.1194 4.65361 18.1586C4.70758 18.1978 4.77135 18.2213 4.83785 18.2265C4.90436 18.2317 4.971 18.2184 5.0304 18.188Z" fill="#506DF6"/>
<path d="M19.9161 7.57848C19.8205 7.28181 19.6446 7.01738 19.408 6.81447C19.1714 6.61156 18.8833 6.47809 18.5755 6.42881L13.7459 5.64394L11.5071 1.29336C11.3645 1.01639 11.1484 0.784061 10.8824 0.621856C10.6164 0.459651 10.3109 0.37384 9.9994 0.37384V1.70694C10.066 1.70694 10.1312 1.72529 10.1881 1.75996C10.2449 1.79463 10.2911 1.84429 10.3215 1.90348L12.8681 6.85211L18.3615 7.74486C18.4272 7.7556 18.4886 7.78421 18.5391 7.82756C18.5896 7.8709 18.6272 7.9273 18.6477 7.99058C18.6683 8.05386 18.671 8.12158 18.6557 8.18632C18.6403 8.25106 18.6075 8.31036 18.5606 8.35765L14.6411 12.3089L15.4896 17.8093C15.5001 17.8751 15.4922 17.9426 15.4667 18.0043C15.4412 18.0659 15.3991 18.1193 15.3451 18.1585C15.2912 18.1977 15.2274 18.2212 15.1609 18.2264C15.0944 18.2316 15.0278 18.2183 14.9684 18.1879L9.9994 15.6812V17.1746L14.3679 19.3783C14.646 19.5187 14.9575 19.5797 15.2681 19.5547C15.5786 19.5297 15.8763 19.4195 16.1284 19.2364C16.3804 19.0532 16.5772 18.8042 16.697 18.5165C16.8167 18.2289 16.8549 17.9138 16.8074 17.6059L16.0615 12.7703L19.5074 9.29661C19.7274 9.07582 19.882 8.79845 19.9541 8.49521C20.0263 8.19198 20.0131 7.87469 19.9161 7.57848Z" fill="#A0A0A0"/>
</svg>
