<svg width="27" height="24" viewBox="0 0 27 24" fill="none" xmlns="http://www.w3.org/2000/svg">
<path d="M23.2265 3.77351C22.6645 3.21126 21.9972 2.76524 21.2628 2.46093C20.5284 2.15663 19.7412 2 18.9463 2C18.1513 2 17.3641 2.15663 16.6297 2.46093C15.8953 2.76524 15.228 3.21126 14.666 3.77351L13.4997 4.93985L12.3334 3.77351C11.1982 2.63833 9.65854 2.00059 8.05315 2.00059C6.44775 2.00059 4.90811 2.63833 3.77293 3.77351C2.63774 4.9087 2 6.44834 2 8.05374C2 9.65913 2.63774 11.1988 3.77293 12.334L4.93926 13.5003L13.4997 22.0607L22.0602 13.5003L23.2265 12.334C23.7887 11.772 24.2348 11.1047 24.5391 10.3703C24.8434 9.63588 25 8.8487 25 8.05374C25 7.25877 24.8434 6.4716 24.5391 5.73719C24.2348 5.00277 23.7887 4.33551 23.2265 3.77351Z" stroke="black" stroke-width="2.20063" stroke-linecap="round" stroke-linejoin="round"/>
</svg>
