<svg width="21" height="19" viewBox="0 0 21 19" fill="none" xmlns="http://www.w3.org/2000/svg">
<path d="M4.84291 7.42183H1.57739C1.33001 7.42066 1.08973 7.50445 0.896713 7.65919C0.703697 7.81392 0.569646 8.03022 0.51697 8.27193C-0.149986 11.2442 -0.171853 14.325 0.452842 17.3064L0.518457 17.6209C0.570081 17.865 0.703832 18.0841 0.897407 18.2415C1.09098 18.399 1.33268 18.4853 1.5822 18.4861H4.84313C5.13118 18.4858 5.40733 18.3712 5.61101 18.1675C5.81469 17.9639 5.92926 17.6877 5.92958 17.3997V8.50828C5.92926 8.22019 5.81466 7.94401 5.61093 7.74032C5.40721 7.53664 5.131 7.42209 4.84291 7.42183ZM4.52958 17.0864H1.83679L1.82327 17.0213C1.25654 14.3172 1.25889 11.5248 1.83019 8.82161H4.52958V17.0864Z" fill="#414141"/>
<path d="M20.9325 10.6856L19.9662 8.10885C19.89 7.90743 19.7544 7.73391 19.5773 7.61123C19.4003 7.48856 19.1903 7.4225 18.9749 7.42181H13.826V6.12986L14.2448 5.2025C14.4543 4.73839 14.5699 4.23735 14.5847 3.72833C14.5995 3.2193 14.5133 2.71239 14.3311 2.23687C14.1489 1.76134 13.8743 1.32664 13.5231 0.957879C13.1719 0.589114 12.7511 0.293595 12.285 0.0883942C12.0302 -0.0225781 11.742 -0.0293179 11.4823 0.0696192C11.2225 0.168556 11.0119 0.365299 10.8954 0.617687L7.38232 8.30827V9.40461H8.42039L12.0194 1.52567C12.5275 1.83885 12.9041 2.32632 13.0789 2.89698C13.2536 3.46764 13.2146 4.08242 12.9691 4.6264L12.4883 5.69116L12.4262 5.97916V8.12171L13.1261 8.8216H18.7384L19.6001 11.1193V11.5249L16.6261 16.7518H11.1607L7.38232 14.5353V16.1582L10.5321 18.006C10.6946 18.1013 10.8796 18.1516 11.068 18.1516H16.8246C17.0115 18.1514 17.1951 18.1018 17.3567 18.0078C17.5183 17.9138 17.6521 17.7788 17.7447 17.6164L20.8615 12.1386C20.9521 11.9789 20.9998 11.7986 20.9999 11.615V11.0574C21 10.9304 20.9771 10.8044 20.9325 10.6856Z" fill="#414141"/>
</svg>
