<svg width="26" height="26" viewBox="0 0 26 26" fill="none" xmlns="http://www.w3.org/2000/svg">
<path d="M0.630316 7.51695L12.4592 12.8829C12.8045 13.0399 13.195 13.0399 13.5403 12.8829L25.3692 7.51695C26.2096 7.13558 26.2096 5.86556 25.3692 5.48419L13.5408 0.117683C13.3712 0.0401357 13.1868 0 13.0003 0C12.8137 0 12.6294 0.0401357 12.4597 0.117683L0.630316 5.48369C-0.210105 5.86505 -0.210105 7.13558 0.630316 7.51695ZM25.3697 11.9999L22.4198 10.6628L14.2116 14.3835C13.8277 14.5577 13.42 14.6461 13 14.6461C12.58 14.6461 12.1728 14.5577 11.7884 14.3835L3.58068 10.6628L0.630316 11.9999C-0.210105 12.3807 -0.210105 13.6502 0.630316 14.0311L12.4592 19.393C12.8045 19.5494 13.195 19.5494 13.5403 19.393L25.3697 14.0311C26.2101 13.6502 26.2101 12.3807 25.3697 11.9999ZM25.3697 18.4897L22.431 17.1577L14.2116 20.8835C13.8277 21.0576 13.42 21.146 13 21.146C12.58 21.146 12.1728 21.0576 11.7884 20.8835L3.56951 17.1577L0.630316 18.4897C-0.210105 18.8705 -0.210105 20.14 0.630316 20.5209L12.4592 25.8828C12.8045 26.0392 13.195 26.0392 13.5403 25.8828L25.3697 20.5209C26.2101 20.14 26.2101 18.8705 25.3697 18.4897Z" fill="white"/>
</svg>
