<svg width="20" height="21" viewBox="0 0 20 21" fill="none" xmlns="http://www.w3.org/2000/svg">
<path d="M17.5285 14.5051L17.5298 14.5057C18.0105 14.7517 18.3821 15.0772 18.6284 15.4358C18.873 15.792 18.9889 16.172 18.988 16.5429V16.5449V19.2514H1.20488L1.20488 16.5449L1.20488 16.5428C1.20399 16.1719 1.31989 15.792 1.56447 15.4358C1.81077 15.0772 2.18233 14.7517 2.66309 14.5057L2.66436 14.5051L6.52676 12.5211L7.40549 12.0697L6.84432 11.2567L5.38858 9.14766C5.38847 9.1475 5.38835 9.14733 5.38824 9.14717C5.38821 9.14713 5.38819 9.14709 5.38816 9.14705C5.14168 8.78906 5.02407 8.40702 5.02363 8.0338C5.02363 8.03365 5.02363 8.0335 5.02363 8.03335L5.02363 4.6944C5.02363 3.75418 5.49497 2.79755 6.43388 2.05556C7.37787 1.30956 8.69352 0.86747 10.0964 0.86747C11.4994 0.86747 12.815 1.30956 13.759 2.05556C14.6979 2.79755 15.1692 3.75418 15.1692 4.6944V8.03336C15.1689 8.40691 15.0512 8.78932 14.8043 9.1476L13.3486 11.2567L12.7874 12.0697L13.6661 12.5211L17.5285 14.5051Z" fill="#506DF6" stroke="#506DF6" stroke-width="1.73494"/>
</svg>
