<svg width="18" height="18" viewBox="0 0 18 18" fill="none" xmlns="http://www.w3.org/2000/svg">
<path d="M16.8882 14.3893L13.9345 11.3487L11.6625 10.3824C12.419 9.27498 12.8243 7.95381 12.8228 6.59999C12.8228 2.96073 9.94669 0 6.41141 0C2.87614 0 0 2.96073 0 6.59999C0 10.2392 2.87614 13.2 6.41141 13.2C7.73801 13.2015 9.03204 12.7771 10.1132 11.9858L11.0495 14.3183L14.0031 17.3591C14.1925 17.5541 14.4174 17.7088 14.6649 17.8144C14.9124 17.9199 15.1777 17.9742 15.4456 17.9743C15.7135 17.9743 15.9788 17.92 16.2263 17.8144C16.4738 17.7089 16.6987 17.5542 16.8882 17.3592C17.0776 17.1642 17.2279 16.9327 17.3304 16.6779C17.4329 16.4231 17.4857 16.1501 17.4857 15.8743C17.4857 15.5985 17.433 15.3254 17.3305 15.0706C17.2279 14.8158 17.0777 14.5843 16.8882 14.3893ZM1.16571 6.59999C1.16571 3.62249 3.51899 1.2 6.41141 1.2C9.30384 1.2 11.6571 3.62249 11.6571 6.59999C11.6571 9.57748 9.30384 12 6.41141 12C3.51899 12 1.16571 9.57748 1.16571 6.59999ZM16.0639 16.5106C15.8998 16.6791 15.6775 16.7738 15.4457 16.7738C15.2139 16.7738 14.9915 16.6791 14.8275 16.5106L12.038 13.6392L11.1676 11.4704L13.2745 12.3664L16.064 15.2378C16.2277 15.4068 16.3196 15.6356 16.3196 15.8742C16.3196 16.1128 16.2276 16.3417 16.0639 16.5106Z" fill="#506DF6"/>
</svg>
