<svg width="20" height="20" viewBox="0 0 20 20" fill="none" xmlns="http://www.w3.org/2000/svg">
<path fill-rule="evenodd" clip-rule="evenodd" d="M9.37363 0C8.79401 0 8.29162 0.401253 8.16346 0.96653L7.81589 2.49961C7.26261 2.66052 6.7348 2.88087 6.23992 3.15313L4.90997 2.31477C4.41965 2.00569 3.78067 2.0772 3.37082 2.48704L2.48601 3.37186C2.07617 3.7817 2.00464 4.42068 2.31374 4.91101L3.15241 6.24143C2.88036 6.73616 2.66022 7.26381 2.49947 7.81691L0.966522 8.16444C0.401255 8.29259 0 8.795 0 9.37461V10.6259C0 11.2055 0.401255 11.7079 0.966522 11.8361L2.49965 12.1837C2.6605 12.7369 2.88077 13.2647 3.15295 13.7595L2.31442 15.0898C2.00533 15.58 2.07686 16.219 2.4867 16.6289L3.37152 17.5137C3.78136 17.9235 4.42034 17.995 4.91066 17.686L6.24094 16.8474C6.73551 17.1194 7.26299 17.3395 7.81589 17.5003L8.16346 19.0334C8.29162 19.5987 8.79401 20 9.37363 20H10.6249C11.2045 20 11.707 19.5987 11.8351 19.0334L12.1825 17.5009C12.7359 17.3401 13.2638 17.1198 13.7588 16.8477L15.089 17.6863C15.5793 17.9953 16.2182 17.9238 16.6282 17.514L17.513 16.6292C17.9228 16.2192 17.9943 15.5803 17.6853 15.09L16.847 13.7603C17.1194 13.2652 17.3399 12.7371 17.5007 12.1836L19.0334 11.8361C19.5987 11.7079 20 11.2055 20 10.6259V9.37461C20 8.795 19.5987 8.29259 19.0334 8.16444L17.5009 7.81701C17.3401 7.26358 17.1199 6.73564 16.8476 6.24064L17.6858 4.91071C17.995 4.42039 17.9235 3.78141 17.5136 3.37156L16.6288 2.48675C16.219 2.07691 15.58 2.00538 15.0896 2.31447L13.7598 3.15278C13.2645 2.88036 12.7363 2.65994 12.1825 2.49906L11.8351 0.96653C11.707 0.401253 11.2045 0 10.6249 0H9.37363ZM6.23433 4.61646C7.00325 4.0776 7.8929 3.69928 8.85462 3.53016L9.37363 1.24088H10.6249L11.1439 3.52982C12.1061 3.69874 12.9962 4.07706 13.7655 4.61607L15.7514 3.36418L16.6362 4.24899L15.3842 6.23495C15.9231 7.00402 16.3013 7.89383 16.4702 8.8557L18.7591 9.37461V10.6259L16.4701 11.1448C16.301 12.1069 15.9226 12.9968 15.3836 13.7658L16.6355 15.7518L15.7507 16.6365L13.7645 15.3845C12.9955 15.9232 12.1057 16.3013 11.1439 16.4702L10.6249 18.7591H9.37363L8.85462 16.4698C7.89326 16.3007 7.00395 15.9226 6.23525 15.3841L4.24895 16.6362L3.36413 15.7514L4.61622 13.7652C4.07749 12.9963 3.69929 12.1066 3.53026 11.1449L1.24087 10.6259V9.37461L3.53016 8.85561C3.69907 7.89405 4.0771 7.00453 4.61561 6.23565L3.36345 4.2493L4.24827 3.36449L6.23433 4.61646ZM12.2262 9.99979C12.2262 11.2293 11.2295 12.2259 10.0001 12.2259C8.77058 12.2259 7.77389 11.2293 7.77389 9.99979C7.77389 8.77031 8.77058 7.77362 10.0001 7.77362C11.2295 7.77362 12.2262 8.77031 12.2262 9.99979ZM13.5401 9.99979C13.5401 11.9549 11.9552 13.5398 10.0001 13.5398C8.04494 13.5398 6.46002 11.9549 6.46002 9.99979C6.46002 8.04469 8.04494 6.45975 10.0001 6.45975C11.9552 6.45975 13.5401 8.04469 13.5401 9.99979Z" fill="#506DF6"/>
</svg>
